<mxfile host="app.diagrams.net" modified="2024-02-24T10:33:36.065Z" agent="Mozilla/5.0 (Windows NT 10.0; Win64; x64) AppleWebKit/537.36 (KHTML, like Gecko) Chrome/122.0.0.0 Safari/537.36" etag="2tgrqqO7F1MXPGOSuszb" version="23.1.6" type="device">
  <diagram name="Страница — 1" id="Ytf1KlczqCJybYeYd-ml">
    <mxGraphModel dx="2391" dy="1129" grid="1" gridSize="10" guides="1" tooltips="1" connect="1" arrows="1" fold="1" page="1" pageScale="1" pageWidth="1169" pageHeight="827" math="0" shadow="0">
      <root>
        <mxCell id="0" />
        <mxCell id="1" parent="0" />
        <mxCell id="e4ZqNFED-JRjI_4p9Fzf-4" style="rounded=0;orthogonalLoop=1;jettySize=auto;html=1;exitX=1;exitY=1;exitDx=0;exitDy=0;entryX=0;entryY=0.5;entryDx=0;entryDy=0;elbow=vertical;" edge="1" parent="1" source="e4ZqNFED-JRjI_4p9Fzf-1" target="e4ZqNFED-JRjI_4p9Fzf-3">
          <mxGeometry relative="1" as="geometry" />
        </mxCell>
        <mxCell id="e4ZqNFED-JRjI_4p9Fzf-5" value="&lt;b&gt;&lt;i&gt;1 / y1, y2, y3&lt;/i&gt;&lt;/b&gt;" style="edgeLabel;html=1;align=center;verticalAlign=middle;resizable=0;points=[];rotation=15;" vertex="1" connectable="0" parent="e4ZqNFED-JRjI_4p9Fzf-4">
          <mxGeometry x="-0.0658" y="4" relative="1" as="geometry">
            <mxPoint x="7" y="-8" as="offset" />
          </mxGeometry>
        </mxCell>
        <mxCell id="e4ZqNFED-JRjI_4p9Fzf-1" value="&lt;b&gt;&lt;font color=&quot;#ff0000&quot;&gt;S0&lt;/font&gt;&lt;/b&gt;" style="ellipse;whiteSpace=wrap;html=1;aspect=fixed;" vertex="1" parent="1">
          <mxGeometry x="370" y="90" width="80" height="80" as="geometry" />
        </mxCell>
        <mxCell id="e4ZqNFED-JRjI_4p9Fzf-9" style="rounded=0;orthogonalLoop=1;jettySize=auto;html=1;exitX=1;exitY=1;exitDx=0;exitDy=0;" edge="1" parent="1" source="e4ZqNFED-JRjI_4p9Fzf-3" target="e4ZqNFED-JRjI_4p9Fzf-8">
          <mxGeometry relative="1" as="geometry" />
        </mxCell>
        <mxCell id="e4ZqNFED-JRjI_4p9Fzf-10" value="&lt;b&gt;&lt;i&gt;!x1 / y6, y7, y8, y9&lt;/i&gt;&lt;/b&gt;" style="edgeLabel;html=1;align=center;verticalAlign=middle;resizable=0;points=[];rotation=60;" vertex="1" connectable="0" parent="e4ZqNFED-JRjI_4p9Fzf-9">
          <mxGeometry x="-0.2233" y="1" relative="1" as="geometry">
            <mxPoint x="15" as="offset" />
          </mxGeometry>
        </mxCell>
        <mxCell id="e4ZqNFED-JRjI_4p9Fzf-3" value="&lt;b&gt;&lt;font color=&quot;#ff0000&quot;&gt;S1&lt;/font&gt;&lt;/b&gt;" style="ellipse;whiteSpace=wrap;html=1;aspect=fixed;" vertex="1" parent="1">
          <mxGeometry x="660" y="190" width="80" height="80" as="geometry" />
        </mxCell>
        <mxCell id="e4ZqNFED-JRjI_4p9Fzf-6" style="rounded=0;orthogonalLoop=1;jettySize=auto;html=1;exitX=0;exitY=0;exitDx=0;exitDy=0;entryX=1;entryY=0;entryDx=0;entryDy=0;edgeStyle=orthogonalEdgeStyle;" edge="1" parent="1" source="e4ZqNFED-JRjI_4p9Fzf-3" target="e4ZqNFED-JRjI_4p9Fzf-3">
          <mxGeometry relative="1" as="geometry">
            <Array as="points">
              <mxPoint x="672" y="170" />
              <mxPoint x="728" y="170" />
            </Array>
          </mxGeometry>
        </mxCell>
        <mxCell id="e4ZqNFED-JRjI_4p9Fzf-7" value="&lt;b&gt;&lt;i&gt;x1 / y4, y5&lt;/i&gt;&lt;/b&gt;" style="edgeLabel;html=1;align=center;verticalAlign=middle;resizable=0;points=[];" vertex="1" connectable="0" parent="e4ZqNFED-JRjI_4p9Fzf-6">
          <mxGeometry x="0.0072" y="2" relative="1" as="geometry">
            <mxPoint y="-8" as="offset" />
          </mxGeometry>
        </mxCell>
        <mxCell id="e4ZqNFED-JRjI_4p9Fzf-16" style="rounded=0;orthogonalLoop=1;jettySize=auto;html=1;exitX=0.5;exitY=1;exitDx=0;exitDy=0;entryX=0.5;entryY=0;entryDx=0;entryDy=0;edgeStyle=orthogonalEdgeStyle;" edge="1" parent="1" source="e4ZqNFED-JRjI_4p9Fzf-8" target="e4ZqNFED-JRjI_4p9Fzf-15">
          <mxGeometry relative="1" as="geometry">
            <Array as="points">
              <mxPoint x="880" y="494" />
              <mxPoint x="880" y="680" />
              <mxPoint x="840" y="680" />
            </Array>
          </mxGeometry>
        </mxCell>
        <mxCell id="e4ZqNFED-JRjI_4p9Fzf-20" value="&lt;b&gt;&lt;i&gt;!x2 / y12, y4&lt;/i&gt;&lt;/b&gt;" style="edgeLabel;html=1;align=center;verticalAlign=middle;resizable=0;points=[];" vertex="1" connectable="0" parent="e4ZqNFED-JRjI_4p9Fzf-16">
          <mxGeometry x="-0.0462" y="2" relative="1" as="geometry">
            <mxPoint x="38" as="offset" />
          </mxGeometry>
        </mxCell>
        <mxCell id="e4ZqNFED-JRjI_4p9Fzf-18" style="edgeStyle=orthogonalEdgeStyle;rounded=0;orthogonalLoop=1;jettySize=auto;html=1;exitX=0;exitY=1;exitDx=0;exitDy=0;entryX=0;entryY=0;entryDx=0;entryDy=0;" edge="1" parent="1" source="e4ZqNFED-JRjI_4p9Fzf-8" target="e4ZqNFED-JRjI_4p9Fzf-15">
          <mxGeometry relative="1" as="geometry">
            <Array as="points">
              <mxPoint x="770" y="482" />
              <mxPoint x="770" y="702" />
            </Array>
          </mxGeometry>
        </mxCell>
        <mxCell id="e4ZqNFED-JRjI_4p9Fzf-21" value="&lt;b&gt;&lt;i&gt;x2x3 / y12, y3&lt;/i&gt;&lt;/b&gt;" style="edgeLabel;html=1;align=center;verticalAlign=middle;resizable=0;points=[];" vertex="1" connectable="0" parent="e4ZqNFED-JRjI_4p9Fzf-18">
          <mxGeometry x="-0.0372" relative="1" as="geometry">
            <mxPoint x="-40" as="offset" />
          </mxGeometry>
        </mxCell>
        <mxCell id="e4ZqNFED-JRjI_4p9Fzf-8" value="&lt;b&gt;&lt;font color=&quot;#ff0000&quot;&gt;S2&lt;/font&gt;&lt;/b&gt;" style="ellipse;whiteSpace=wrap;html=1;aspect=fixed;" vertex="1" parent="1">
          <mxGeometry x="800" y="414" width="80" height="80" as="geometry" />
        </mxCell>
        <mxCell id="e4ZqNFED-JRjI_4p9Fzf-13" style="edgeStyle=orthogonalEdgeStyle;rounded=0;orthogonalLoop=1;jettySize=auto;html=1;exitX=1;exitY=1;exitDx=0;exitDy=0;entryX=1;entryY=0;entryDx=0;entryDy=0;" edge="1" parent="1" source="e4ZqNFED-JRjI_4p9Fzf-8" target="e4ZqNFED-JRjI_4p9Fzf-8">
          <mxGeometry relative="1" as="geometry">
            <Array as="points">
              <mxPoint x="900" y="482" />
              <mxPoint x="900" y="426" />
            </Array>
          </mxGeometry>
        </mxCell>
        <mxCell id="e4ZqNFED-JRjI_4p9Fzf-14" value="&lt;b&gt;&lt;i&gt;x2!x3 / y10, y11&lt;/i&gt;&lt;/b&gt;" style="edgeLabel;html=1;align=center;verticalAlign=middle;resizable=0;points=[];rotation=0;" vertex="1" connectable="0" parent="e4ZqNFED-JRjI_4p9Fzf-13">
          <mxGeometry x="0.128" y="-2" relative="1" as="geometry">
            <mxPoint x="48" y="1" as="offset" />
          </mxGeometry>
        </mxCell>
        <mxCell id="e4ZqNFED-JRjI_4p9Fzf-23" style="rounded=0;orthogonalLoop=1;jettySize=auto;html=1;exitX=0;exitY=1;exitDx=0;exitDy=0;entryX=1;entryY=0;entryDx=0;entryDy=0;" edge="1" parent="1" source="e4ZqNFED-JRjI_4p9Fzf-15" target="e4ZqNFED-JRjI_4p9Fzf-22">
          <mxGeometry relative="1" as="geometry" />
        </mxCell>
        <mxCell id="e4ZqNFED-JRjI_4p9Fzf-24" value="&lt;b&gt;&lt;i&gt;!x4 / y6&lt;br&gt;&lt;/i&gt;&lt;/b&gt;" style="edgeLabel;html=1;align=center;verticalAlign=middle;resizable=0;points=[];rotation=-45;" vertex="1" connectable="0" parent="e4ZqNFED-JRjI_4p9Fzf-23">
          <mxGeometry x="-0.0428" relative="1" as="geometry">
            <mxPoint x="-12" y="-7" as="offset" />
          </mxGeometry>
        </mxCell>
        <mxCell id="e4ZqNFED-JRjI_4p9Fzf-15" value="&lt;b&gt;&lt;font color=&quot;#ff0000&quot;&gt;S3&lt;br&gt;&lt;/font&gt;&lt;/b&gt;" style="ellipse;whiteSpace=wrap;html=1;aspect=fixed;" vertex="1" parent="1">
          <mxGeometry x="800" y="690" width="80" height="80" as="geometry" />
        </mxCell>
        <mxCell id="e4ZqNFED-JRjI_4p9Fzf-28" style="rounded=0;orthogonalLoop=1;jettySize=auto;html=1;exitX=0.5;exitY=0;exitDx=0;exitDy=0;entryX=0.5;entryY=1;entryDx=0;entryDy=0;" edge="1" parent="1" source="e4ZqNFED-JRjI_4p9Fzf-22" target="e4ZqNFED-JRjI_4p9Fzf-1">
          <mxGeometry relative="1" as="geometry" />
        </mxCell>
        <mxCell id="e4ZqNFED-JRjI_4p9Fzf-29" value="&lt;b&gt;&lt;i&gt;x5 / y8, y14&lt;/i&gt;&lt;/b&gt;" style="edgeLabel;html=1;align=center;verticalAlign=middle;resizable=0;points=[];rotation=65;" vertex="1" connectable="0" parent="e4ZqNFED-JRjI_4p9Fzf-28">
          <mxGeometry x="-0.005" y="2" relative="1" as="geometry">
            <mxPoint x="16" y="-1" as="offset" />
          </mxGeometry>
        </mxCell>
        <mxCell id="e4ZqNFED-JRjI_4p9Fzf-31" style="rounded=0;orthogonalLoop=1;jettySize=auto;html=1;exitX=0;exitY=1;exitDx=0;exitDy=0;entryX=1;entryY=0.5;entryDx=0;entryDy=0;" edge="1" parent="1" source="e4ZqNFED-JRjI_4p9Fzf-22" target="e4ZqNFED-JRjI_4p9Fzf-30">
          <mxGeometry relative="1" as="geometry" />
        </mxCell>
        <mxCell id="e4ZqNFED-JRjI_4p9Fzf-32" value="&lt;b&gt;&lt;i&gt;!x5 / y15, y16, y17, y18, y19&lt;br&gt;y20, y21, y22, y23, y24, y9, y25&lt;br&gt;&lt;/i&gt;&lt;/b&gt;" style="edgeLabel;html=1;align=center;verticalAlign=middle;resizable=0;points=[];rotation=-15;" vertex="1" connectable="0" parent="e4ZqNFED-JRjI_4p9Fzf-31">
          <mxGeometry x="-0.0717" y="-2" relative="1" as="geometry">
            <mxPoint x="-10" y="-17" as="offset" />
          </mxGeometry>
        </mxCell>
        <mxCell id="e4ZqNFED-JRjI_4p9Fzf-22" value="&lt;b&gt;&lt;font color=&quot;#ff0000&quot;&gt;S4&lt;br&gt;&lt;/font&gt;&lt;/b&gt;" style="ellipse;whiteSpace=wrap;html=1;aspect=fixed;" vertex="1" parent="1">
          <mxGeometry x="660" y="827" width="80" height="80" as="geometry" />
        </mxCell>
        <mxCell id="e4ZqNFED-JRjI_4p9Fzf-26" style="edgeStyle=orthogonalEdgeStyle;rounded=0;orthogonalLoop=1;jettySize=auto;html=1;exitX=1;exitY=1;exitDx=0;exitDy=0;entryX=1;entryY=0;entryDx=0;entryDy=0;" edge="1" parent="1" source="e4ZqNFED-JRjI_4p9Fzf-15" target="e4ZqNFED-JRjI_4p9Fzf-15">
          <mxGeometry relative="1" as="geometry">
            <Array as="points">
              <mxPoint x="868" y="760" />
              <mxPoint x="900" y="760" />
              <mxPoint x="900" y="702" />
            </Array>
          </mxGeometry>
        </mxCell>
        <mxCell id="e4ZqNFED-JRjI_4p9Fzf-27" value="&lt;b&gt;&lt;i&gt;x4 / y13&lt;/i&gt;&lt;/b&gt;" style="edgeLabel;html=1;align=center;verticalAlign=middle;resizable=0;points=[];" vertex="1" connectable="0" parent="e4ZqNFED-JRjI_4p9Fzf-26">
          <mxGeometry x="0.0451" relative="1" as="geometry">
            <mxPoint x="30" y="1" as="offset" />
          </mxGeometry>
        </mxCell>
        <mxCell id="e4ZqNFED-JRjI_4p9Fzf-38" style="edgeStyle=orthogonalEdgeStyle;rounded=0;orthogonalLoop=1;jettySize=auto;html=1;exitX=0;exitY=1;exitDx=0;exitDy=0;entryX=0.5;entryY=1;entryDx=0;entryDy=0;" edge="1" parent="1" source="e4ZqNFED-JRjI_4p9Fzf-30" target="e4ZqNFED-JRjI_4p9Fzf-35">
          <mxGeometry relative="1" as="geometry">
            <Array as="points">
              <mxPoint x="-310" y="975" />
            </Array>
          </mxGeometry>
        </mxCell>
        <mxCell id="e4ZqNFED-JRjI_4p9Fzf-40" value="&lt;b&gt;&lt;i&gt;x6 /&amp;nbsp; ___&lt;/i&gt;&lt;/b&gt;" style="edgeLabel;html=1;align=center;verticalAlign=middle;resizable=0;points=[];" vertex="1" connectable="0" parent="e4ZqNFED-JRjI_4p9Fzf-38">
          <mxGeometry x="-0.4003" y="2" relative="1" as="geometry">
            <mxPoint x="-13" y="-17" as="offset" />
          </mxGeometry>
        </mxCell>
        <mxCell id="e4ZqNFED-JRjI_4p9Fzf-41" style="rounded=0;orthogonalLoop=1;jettySize=auto;html=1;exitX=0;exitY=0;exitDx=0;exitDy=0;" edge="1" parent="1" source="e4ZqNFED-JRjI_4p9Fzf-30" target="e4ZqNFED-JRjI_4p9Fzf-33">
          <mxGeometry relative="1" as="geometry" />
        </mxCell>
        <mxCell id="e4ZqNFED-JRjI_4p9Fzf-42" value="&lt;b&gt;&lt;i&gt;x6!x7 / ___&lt;/i&gt;&lt;/b&gt;" style="edgeLabel;html=1;align=center;verticalAlign=middle;resizable=0;points=[];rotation=10;" vertex="1" connectable="0" parent="e4ZqNFED-JRjI_4p9Fzf-41">
          <mxGeometry x="0.018" relative="1" as="geometry">
            <mxPoint y="-12" as="offset" />
          </mxGeometry>
        </mxCell>
        <mxCell id="e4ZqNFED-JRjI_4p9Fzf-43" style="rounded=0;orthogonalLoop=1;jettySize=auto;html=1;exitX=0;exitY=0.5;exitDx=0;exitDy=0;entryX=1;entryY=1;entryDx=0;entryDy=0;" edge="1" parent="1" source="e4ZqNFED-JRjI_4p9Fzf-30" target="e4ZqNFED-JRjI_4p9Fzf-33">
          <mxGeometry relative="1" as="geometry" />
        </mxCell>
        <mxCell id="e4ZqNFED-JRjI_4p9Fzf-44" value="&lt;b&gt;&lt;i&gt;x6x7 / y26&lt;/i&gt;&lt;/b&gt;" style="edgeLabel;html=1;align=center;verticalAlign=middle;resizable=0;points=[];rotation=10;" vertex="1" connectable="0" parent="e4ZqNFED-JRjI_4p9Fzf-43">
          <mxGeometry x="-0.0311" y="1" relative="1" as="geometry">
            <mxPoint x="-8" y="11" as="offset" />
          </mxGeometry>
        </mxCell>
        <mxCell id="e4ZqNFED-JRjI_4p9Fzf-30" value="&lt;b&gt;&lt;font color=&quot;#ff0000&quot;&gt;S5&lt;br&gt;&lt;/font&gt;&lt;/b&gt;" style="ellipse;whiteSpace=wrap;html=1;aspect=fixed;" vertex="1" parent="1">
          <mxGeometry x="351" y="907" width="80" height="80" as="geometry" />
        </mxCell>
        <mxCell id="e4ZqNFED-JRjI_4p9Fzf-46" style="rounded=0;orthogonalLoop=1;jettySize=auto;html=1;exitX=0;exitY=0.5;exitDx=0;exitDy=0;entryX=1;entryY=1;entryDx=0;entryDy=0;" edge="1" parent="1" source="e4ZqNFED-JRjI_4p9Fzf-33" target="e4ZqNFED-JRjI_4p9Fzf-34">
          <mxGeometry relative="1" as="geometry" />
        </mxCell>
        <mxCell id="e4ZqNFED-JRjI_4p9Fzf-50" value="&lt;b&gt;&lt;i&gt;x8 / y27&lt;/i&gt;&lt;/b&gt;" style="edgeLabel;html=1;align=center;verticalAlign=middle;resizable=0;points=[];rotation=40;" vertex="1" connectable="0" parent="e4ZqNFED-JRjI_4p9Fzf-46">
          <mxGeometry x="0.0683" y="1" relative="1" as="geometry">
            <mxPoint x="-8" y="5" as="offset" />
          </mxGeometry>
        </mxCell>
        <mxCell id="e4ZqNFED-JRjI_4p9Fzf-33" value="&lt;b&gt;&lt;font color=&quot;#ff0000&quot;&gt;S6&lt;br&gt;&lt;/font&gt;&lt;/b&gt;" style="ellipse;whiteSpace=wrap;html=1;aspect=fixed;" vertex="1" parent="1">
          <mxGeometry x="50" y="840" width="80" height="80" as="geometry" />
        </mxCell>
        <mxCell id="e4ZqNFED-JRjI_4p9Fzf-53" style="edgeStyle=orthogonalEdgeStyle;rounded=0;orthogonalLoop=1;jettySize=auto;html=1;exitX=1;exitY=0.5;exitDx=0;exitDy=0;entryX=0.5;entryY=0;entryDx=0;entryDy=0;" edge="1" parent="1" source="e4ZqNFED-JRjI_4p9Fzf-34" target="e4ZqNFED-JRjI_4p9Fzf-30">
          <mxGeometry relative="1" as="geometry" />
        </mxCell>
        <mxCell id="e4ZqNFED-JRjI_4p9Fzf-54" value="&lt;b&gt;&lt;i&gt;!x9 / y35, y 36, y11&lt;/i&gt;&lt;/b&gt;" style="edgeLabel;html=1;align=center;verticalAlign=middle;resizable=0;points=[];" vertex="1" connectable="0" parent="e4ZqNFED-JRjI_4p9Fzf-53">
          <mxGeometry x="-0.3252" y="-1" relative="1" as="geometry">
            <mxPoint x="-5" y="-21" as="offset" />
          </mxGeometry>
        </mxCell>
        <mxCell id="e4ZqNFED-JRjI_4p9Fzf-34" value="&lt;b&gt;&lt;font color=&quot;#ff0000&quot;&gt;S7&lt;br&gt;&lt;/font&gt;&lt;/b&gt;" style="ellipse;whiteSpace=wrap;html=1;aspect=fixed;" vertex="1" parent="1">
          <mxGeometry x="-190" y="670" width="80" height="80" as="geometry" />
        </mxCell>
        <mxCell id="e4ZqNFED-JRjI_4p9Fzf-55" style="rounded=0;orthogonalLoop=1;jettySize=auto;html=1;exitX=1;exitY=0;exitDx=0;exitDy=0;" edge="1" parent="1" source="e4ZqNFED-JRjI_4p9Fzf-35" target="e4ZqNFED-JRjI_4p9Fzf-36">
          <mxGeometry relative="1" as="geometry" />
        </mxCell>
        <mxCell id="e4ZqNFED-JRjI_4p9Fzf-56" value="&lt;b&gt;&lt;i&gt;1 / y12, y3&lt;/i&gt;&lt;/b&gt;" style="edgeLabel;html=1;align=center;verticalAlign=middle;resizable=0;points=[];rotation=-55;" vertex="1" connectable="0" parent="e4ZqNFED-JRjI_4p9Fzf-55">
          <mxGeometry x="-0.0757" y="-3" relative="1" as="geometry">
            <mxPoint x="-15" y="-14" as="offset" />
          </mxGeometry>
        </mxCell>
        <mxCell id="e4ZqNFED-JRjI_4p9Fzf-35" value="&lt;b style=&quot;border-color: var(--border-color);&quot;&gt;&lt;font style=&quot;border-color: var(--border-color);&quot; color=&quot;#ff0000&quot;&gt;S8&lt;/font&gt;&lt;/b&gt;&lt;b&gt;&lt;font color=&quot;#ff0000&quot;&gt;&lt;br&gt;&lt;/font&gt;&lt;/b&gt;" style="ellipse;whiteSpace=wrap;html=1;aspect=fixed;" vertex="1" parent="1">
          <mxGeometry x="-350" y="470" width="80" height="80" as="geometry" />
        </mxCell>
        <mxCell id="e4ZqNFED-JRjI_4p9Fzf-59" style="rounded=0;orthogonalLoop=1;jettySize=auto;html=1;exitX=1;exitY=0;exitDx=0;exitDy=0;entryX=0;entryY=1;entryDx=0;entryDy=0;" edge="1" parent="1" source="e4ZqNFED-JRjI_4p9Fzf-36" target="e4ZqNFED-JRjI_4p9Fzf-37">
          <mxGeometry relative="1" as="geometry" />
        </mxCell>
        <mxCell id="e4ZqNFED-JRjI_4p9Fzf-60" value="&lt;b&gt;&lt;i&gt;!x10 / y6&lt;/i&gt;&lt;/b&gt;" style="edgeLabel;html=1;align=center;verticalAlign=middle;resizable=0;points=[];rotation=-40;" vertex="1" connectable="0" parent="e4ZqNFED-JRjI_4p9Fzf-59">
          <mxGeometry x="-0.0233" y="1" relative="1" as="geometry">
            <mxPoint x="-8" y="-5" as="offset" />
          </mxGeometry>
        </mxCell>
        <mxCell id="e4ZqNFED-JRjI_4p9Fzf-36" value="&lt;b style=&quot;border-color: var(--border-color);&quot;&gt;&lt;font style=&quot;border-color: var(--border-color);&quot; color=&quot;#ff0000&quot;&gt;S9&lt;/font&gt;&lt;/b&gt;&lt;b&gt;&lt;font color=&quot;#ff0000&quot;&gt;&lt;br&gt;&lt;/font&gt;&lt;/b&gt;" style="ellipse;whiteSpace=wrap;html=1;aspect=fixed;" vertex="1" parent="1">
          <mxGeometry x="-180" y="260" width="80" height="80" as="geometry" />
        </mxCell>
        <mxCell id="e4ZqNFED-JRjI_4p9Fzf-65" style="edgeStyle=orthogonalEdgeStyle;rounded=0;orthogonalLoop=1;jettySize=auto;html=1;exitX=1;exitY=0.5;exitDx=0;exitDy=0;entryX=0;entryY=0.5;entryDx=0;entryDy=0;" edge="1" parent="1" source="e4ZqNFED-JRjI_4p9Fzf-37" target="e4ZqNFED-JRjI_4p9Fzf-1">
          <mxGeometry relative="1" as="geometry" />
        </mxCell>
        <mxCell id="e4ZqNFED-JRjI_4p9Fzf-66" value="&lt;b&gt;&lt;i&gt;!x11 / y7&lt;/i&gt;&lt;/b&gt;" style="edgeLabel;html=1;align=center;verticalAlign=middle;resizable=0;points=[];" vertex="1" connectable="0" parent="e4ZqNFED-JRjI_4p9Fzf-65">
          <mxGeometry x="-0.0571" y="3" relative="1" as="geometry">
            <mxPoint y="-7" as="offset" />
          </mxGeometry>
        </mxCell>
        <mxCell id="e4ZqNFED-JRjI_4p9Fzf-37" value="&lt;b&gt;&lt;font color=&quot;#ff0000&quot;&gt;S10&lt;br&gt;&lt;/font&gt;&lt;/b&gt;" style="ellipse;whiteSpace=wrap;html=1;aspect=fixed;" vertex="1" parent="1">
          <mxGeometry x="40" y="90" width="80" height="80" as="geometry" />
        </mxCell>
        <mxCell id="e4ZqNFED-JRjI_4p9Fzf-45" style="rounded=0;orthogonalLoop=1;jettySize=auto;html=1;exitX=0;exitY=0;exitDx=0;exitDy=0;entryX=1.051;entryY=0.59;entryDx=0;entryDy=0;entryPerimeter=0;" edge="1" parent="1" source="e4ZqNFED-JRjI_4p9Fzf-33" target="e4ZqNFED-JRjI_4p9Fzf-34">
          <mxGeometry relative="1" as="geometry" />
        </mxCell>
        <mxCell id="e4ZqNFED-JRjI_4p9Fzf-48" value="&lt;b&gt;&lt;i&gt;!x8 / ___&lt;/i&gt;&lt;/b&gt;" style="edgeLabel;html=1;align=center;verticalAlign=middle;resizable=0;points=[];rotation=45;" vertex="1" connectable="0" parent="e4ZqNFED-JRjI_4p9Fzf-45">
          <mxGeometry x="-0.1249" y="-3" relative="1" as="geometry">
            <mxPoint y="-10" as="offset" />
          </mxGeometry>
        </mxCell>
        <mxCell id="e4ZqNFED-JRjI_4p9Fzf-51" style="rounded=0;orthogonalLoop=1;jettySize=auto;html=1;exitX=0;exitY=0;exitDx=0;exitDy=0;entryX=0.955;entryY=0.828;entryDx=0;entryDy=0;entryPerimeter=0;" edge="1" parent="1" source="e4ZqNFED-JRjI_4p9Fzf-34" target="e4ZqNFED-JRjI_4p9Fzf-35">
          <mxGeometry relative="1" as="geometry" />
        </mxCell>
        <mxCell id="e4ZqNFED-JRjI_4p9Fzf-52" value="&lt;b&gt;&lt;i&gt;x9 / y28, y29, y30, y31, y32,&lt;br&gt;y33, y34&lt;br&gt;&lt;/i&gt;&lt;/b&gt;" style="edgeLabel;html=1;align=center;verticalAlign=middle;resizable=0;points=[];rotation=60;" vertex="1" connectable="0" parent="e4ZqNFED-JRjI_4p9Fzf-51">
          <mxGeometry x="0.0645" y="-3" relative="1" as="geometry">
            <mxPoint x="26" y="-3" as="offset" />
          </mxGeometry>
        </mxCell>
        <mxCell id="e4ZqNFED-JRjI_4p9Fzf-57" style="edgeStyle=orthogonalEdgeStyle;rounded=0;orthogonalLoop=1;jettySize=auto;html=1;exitX=0;exitY=0.5;exitDx=0;exitDy=0;entryX=0.25;entryY=0;entryDx=0;entryDy=0;entryPerimeter=0;" edge="1" parent="1" source="e4ZqNFED-JRjI_4p9Fzf-36" target="e4ZqNFED-JRjI_4p9Fzf-36">
          <mxGeometry relative="1" as="geometry">
            <Array as="points">
              <mxPoint x="-200" y="300" />
              <mxPoint x="-200" y="240" />
              <mxPoint x="-160" y="240" />
            </Array>
          </mxGeometry>
        </mxCell>
        <mxCell id="e4ZqNFED-JRjI_4p9Fzf-58" value="&lt;b&gt;&lt;i&gt;x10 / y13&lt;/i&gt;&lt;/b&gt;" style="edgeLabel;html=1;align=center;verticalAlign=middle;resizable=0;points=[];" vertex="1" connectable="0" parent="e4ZqNFED-JRjI_4p9Fzf-57">
          <mxGeometry x="0.4384" y="1" relative="1" as="geometry">
            <mxPoint x="-1" y="-9" as="offset" />
          </mxGeometry>
        </mxCell>
        <mxCell id="e4ZqNFED-JRjI_4p9Fzf-63" style="edgeStyle=orthogonalEdgeStyle;rounded=0;orthogonalLoop=1;jettySize=auto;html=1;exitX=0;exitY=0.5;exitDx=0;exitDy=0;entryX=0.25;entryY=0;entryDx=0;entryDy=0;entryPerimeter=0;" edge="1" parent="1" source="e4ZqNFED-JRjI_4p9Fzf-37" target="e4ZqNFED-JRjI_4p9Fzf-37">
          <mxGeometry relative="1" as="geometry">
            <Array as="points">
              <mxPoint x="10" y="130" />
              <mxPoint x="10" y="70" />
              <mxPoint x="60" y="70" />
            </Array>
          </mxGeometry>
        </mxCell>
        <mxCell id="e4ZqNFED-JRjI_4p9Fzf-64" value="&lt;b&gt;&lt;i&gt;x11 / y10&lt;/i&gt;&lt;/b&gt;" style="edgeLabel;html=1;align=center;verticalAlign=middle;resizable=0;points=[];" vertex="1" connectable="0" parent="e4ZqNFED-JRjI_4p9Fzf-63">
          <mxGeometry x="0.4253" relative="1" as="geometry">
            <mxPoint x="-4" y="-10" as="offset" />
          </mxGeometry>
        </mxCell>
      </root>
    </mxGraphModel>
  </diagram>
</mxfile>
